 Toy Story 3 (2010) (1080p)       


Toy.Story.3.2010.1080p.AC3.Dutch.X264_R_Knorloading




Verenigde Staten
Animatie / Avontuur
103 minuten

geregisseerd door Lee Unkrich
met de stemmen van Tom Hanks, Tim Allen en Joan Cusack

Wanneer Andy gaat studeren en op kamers gaat, komen Woody, Buzz en de rest van hun speelgoedvrienden bij dagopvang Sunnyside terecht. Dit lijkt in eerste instantie een gezellige plek, onder leiding van de vriendelijke speelgoedbeer Lotso. Maar het dagverblijf blijkt helemaal niet zo prettig en dus willen Woody en de rest zo snel mogelijk weg. Dit schijnt echter nog niet zo eenvoudig te zijn...


English

Storyline
Woody, Buzz and the whole gang are back. As their owner Andy prepares to depart for college, his loyal toys find themselves in daycare where untamed tots with their sticky little fingers do not play nice. So, it's all for one and one for all as they join Barbie's counterpart Ken, a thespian hedgehog named Mr. Pricklepants and a pink, strawberry-scented teddy bear called Lots-o'-Huggin' Bear to plan their great escape


 


Gestreamd Voor PS3 + Popcorn + Mediabox



===================================================

Source: Toy Story 3 2010 1080p Blu-ray AVC 
 Video Format: X264 / Mkv
 Video Info: 1920 x 1080 23.98 Fps
 Geluidinfo: Englisch / DutchAC3 6CH 48Khz 640 Kbps
 Subs: None
 Bestandgrote: 7.46 Gb
 Speelduur: 103 Minutes
Categorie : Beeld 
Formaat : x264HD 
Bron : Retail
 
Ondertitels : Geen
Thanks :  Rknorloading  
 
Genre : Avontuur
Animatie

Format                           : Matroska
File size                        : 7.47 GiB
Duration                         : 1h 43mn
Overall bit rate                 : 10.4 Mbps
Encoded date                     : UTC 2010-10-24 14:32:38
Writing application              : mkvmerge v3.0.0 ('Hang up your Hang-Ups') built on Dec 12 2009 15:20:35
Writing library                  : libebml v0.7.9 + libmatroska v0.8.1

Video
ID                               : 1
Format                           : AVC
Format/Info                      : Advanced Video Codec
Format profile                   : High@L4.1
Format settings, CABAC           : Yes
Format settings, ReFrames        : 3 frames
Format settings, GOP             : M=1, N=34
Muxing mode                      : Container profile=Unknown@4.1
Codec ID                         : V_MPEG4/ISO/AVC
Duration                         : 1h 43mn
Bit rate mode                    : Variable
Bit rate                         : 9 099 Kbps
Maximum bit rate                 : 18.0 Mbps
Width                            : 1 920 pixels
Height                           : 1 080 pixels
Display aspect ratio             : 16:9
Frame rate                       : 23.976 fps
Color space                      : YUV
Chroma subsampling               : 4:2:0
Bit depth                        : 8 bits
Scan type                        : Progressive
Bits/(Pixel*Frame)               : 0.183
Stream size                      : 6.40 GiB (86%)
Writing library                  : x264 core 104 r1683 62997d6
Encoding settings                : cabac=1 / ref=3 / deblock=1:0:0 / analyse=0x3:0x113 / me=umh / subme=7 / psy=1 / psy_rd=1.00:0.25 / mixed_ref=1 / me_range=16 / chroma_me=1 / trellis=1 / 8x8dct=1 / cqm=0 / deadzone=21,11 / fast_pskip=1 / chroma_qp_offset=-4 / threads=6 / sliced_threads=0 / slices=4 / nr=0 / decimate=1 / interlaced=0 / constrained_intra=0 / bframes=3 / b_pyramid=1 / b_adapt=1 / b_bias=0 / direct=3 / weightb=1 / open_gop=2 / weightp=0 / keyint=24 / keyint_min=2 / scenecut=40 / intra_refresh=0 / rc_lookahead=24 / rc=2pass / mbtree=1 / bitrate=9099 / ratetol=1.0 / qcomp=0.60 / qpmin=10 / qpmax=51 / qpstep=4 / cplxblur=20.0 / qblur=0.5 / vbv_maxrate=18000 / vbv_bufsize=18000 / ip_ratio=1.40 / aq=1:1.00 / nal_hrd=vbr

Audio #1
ID                               : 2
Format                           : AC-3
Format/Info                      : Audio Coding 3
Mode extension                   : CM (complete main)
Codec ID                         : A_AC3
Duration                         : 1h 43mn
Bit rate mode                    : Constant
Bit rate                         : 640 Kbps
Channel(s)                       : 6 channels
Channel positions                : Front: L C R, Side: L R, LFE
Sampling rate                    : 48.0 KHz
Bit depth                        : 16 bits
Stream size                      : 472 MiB (6%)

Audio #2
ID                               : 3
Format                           : AC-3
Format/Info                      : Audio Coding 3
Mode extension                   : CM (complete main)
Codec ID                         : A_AC3
Duration                         : 1h 43mn
Bit rate mode                    : Constant
Bit rate                         : 640 Kbps
Channel(s)                       : 6 channels
Channel positions                : Front: L C R, Side: L R, LFE
Sampling rate                    : 48.0 KHz
Bit depth                        : 16 bits
Stream size                      : 472 MiB (6%)




Weblink :  http://www.moviemeter.nl/film/49471 
Weblink :  http://www.imdb.com/title/tt0435761/ 

***************************************** 

Brought to you by 
Pioen


******************************************


DON T HIT AND RUN Niet gelijk afhaken als de FILM binnen is blijf seeden. 

Don`t quit after you finished the download, but keep seeding


There are fake torrents from uploaders who use our team name.
Those are not ours, or members from our team.
We 2Lions-Team are not responsible for the fake posts on our name

Wij  zijn niet verantwoordelijk voor die zieke FAKE posten die op onze naam worden gedaan


 
   
 

 
 
 
